<svg preserveAspectRatio="xMidYMid meet" data-bbox="0 0 1080 200" viewBox="0 0 1080 200" xmlns="http://www.w3.org/2000/svg" data-type="color" role="presentation" aria-hidden="true" aria-label="">
    <g>
        <path d="M360.91 90.05c5.16-5.6 7.38-21.43 2.29-27.54-4.27-6.33-15.91-6.8-24.95-6.87-4.08-.07-9.06-.1-14.92-.1-15.25.01-30.46.17-47.99.39-2.81 0-5.07.54-6.79 1.62-1.72 1.09-2.84 3.47-3.34 7.16l-11.1 79.18c15.97.2 35.85.29 52.59.38 9.16-.04 24.18.28 32.22-.96 15.36-1.83 22.49-9.22 24.39-24.86 1.85-14.88-1.91-21.08-17.21-21.03 5.15-.45 10.91-2.5 14.82-7.37Zm-28.98 27.07c-1.31 12.04-8.17 12.31-18.37 12.23h-26.2l3.39-23.89h29.32c10.14.18 13.07 1.94 11.85 11.67Zm2.1-37.49c-.91 5.71-2.25 9.61-7.08 11.29-3.62 1.46-29.94.49-34.26.75l2.52-17.77c.38-2.43 1.35-3.92 2.87-4.5 1.53-.56 2.55-.85 3.07-.85h17.21c9.69.24 17.09-1.45 15.67 11.09Z" fill="#ff7a00" data-color="1"></path>
        <path d="M479.93 67.39c-4.7-9.27-14.59-11.02-24.85-11.46-13.22.02-27.66-.25-41.22-.1-7.06.07-13.92.1-20.55.1-5.22 0-8.8 1.09-10.71 3.24-1.91 2.17-3.18 5.67-3.82 10.52a7150 7150 0 0 1-10.33 74.2h31.36c1.29-9.62 2.59-19.19 3.92-28.69 13.11-.01 31.28-.04 43.88.19 8.93.13 16.43-2.2 22.48-6.98 9.1-5.98 15.52-29.94 9.84-41.03Zm-30.2 17.41c-.66 7.92-5.15 14.66-13.2 14.53h-29.45c-.39 0-.77.01-1.1.06 1.11-7.84 2.24-15.7 3.4-23.58.09-1.88 2.62-3.45 4.21-3.44 8.98-.31 19.52-.27 28.67 0 7.53.69 8.47 5.14 7.47 12.43" fill="#ff7a00" data-color="1"></path>
        <path d="M532.9 123.04c7.41 3.33 18.39 4.1 27.25 4.4 9.43.14 16.91.42 25.72 0 8.12 0 16.61-1.78 17.59-10.9 1.51-7.27-4.42-8.28-10.52-8.22h-11.86c-17.82-.46-46.73 3.85-41.88-23.9 3.13-29.22 28.85-29.05 52.59-29.26 8.57 0 19.43.26 28.01.77 4.4.26 7.74.7 10.04 1.34 7.43.37 12.61 3.9 11.86 11.09-.03 1.46-.62 4.42-.76 6.12-.13 1.15-.26 1.79-.38 1.91-.76-.89-2.46-1.63-5.07-2.2s-5.74-.99-9.37-1.24c-6.31-.45-13.96-.76-19.79-.77h-17.4c-7.91.03-15.91.95-17.02 9.75-1.15 7.33 3.75 8.16 10.14 8.22h18.64c10.37 0 16.83-.26 24.95 1.53 4.46 1.02 7.74 3.32 9.85 6.88 4.54 7.3.9 26.58-5.16 33.18-7.52 9.18-18.25 11.66-30.31 12.53-12.7.81-22.29.52-34.99.57-8.82-.64-35.01.66-33.46-11.67l1.34-10.14Z" fill="#ff7a00" data-color="1"></path>
        <path d="M651.08 55.92h105.56l-2.29 16.64h-36.91l-8.41 61c-.79 4.37-1.3 7.84-5.16 9.47-3.78 1.61-23.33.59-27.92.86l10.14-71.33H648.8l2.3-16.64Z" fill="#ff7a00" data-color="1"></path>
        <path d="M813.81 114.25c-9.35-.02-16.05.2-24.86.19l-4.21 29.45h-31.36l10.71-76.3c1.37-8.33 4.49-11.7 13.96-11.66 16.11-.14 35.94-.39 52.59-.29 19.59.65 41.9-3.38 38.05 23.81-2.04 10.92-2.99 17.65-10.14 23.14-2.4 1.48-6.14 2.11-9.18 2.11l-.19.76c1.62.02 4.18-.09 5.74.19 8.41 1.33 9.54 7.37 8.22 14.34l-2.29 16.83c-.56 3.19-.28 5.32.76 7.07h-23.52c-6.02-.2-10.24-1.01-9.37-8.03l1.91-12.62c.64-3.95.13-6.44-1.53-7.46-2.31-1.82-11.22-1.55-15.3-1.53Zm-22.75-14.92c7.1.13 17.55.24 25.05.19h6.31c7.91-.31 12.49-4.92 13.39-14.15.96-6.46.37-11.9-6.5-12.62q-2.685-.57-7.17-.57c-5.64 0-12.77-.04-18.26.1-2.68.07-4.66.1-5.93.1-.26 0-.86.19-1.82.57s-1.56 1.34-1.82 2.87l-3.25 23.52Z" fill="#ff7a00" data-color="1"></path>
        <path d="m865.06 143.89 40.73-73.05c2.8-4.97 6.31-8.83 10.52-11.57s10.45-4.11 18.74-4.11c12.24.08 20.36 3.98 23.52 15.68l20.27 73.05h-33.85l-5.55-19.7h-39.77l-10.71 19.7zm41.11-31.75h29.07l-6.5-26.77a8 8 0 0 0-.86-2.77c-.84-1.81-4.69-1.5-5.64 0-.64.83-1.21 1.76-1.72 2.77l-14.34 26.77Z" fill="#ff7a00" data-color="1"></path>
        <path d="M974.44 55.92H1080l-2.29 16.64h-36.91l-8.41 61c-.79 4.37-1.3 7.84-5.16 9.47-3.78 1.61-23.33.59-27.92.86l10.14-71.33h-37.29l2.3-16.64Z" fill="#ff7a00" data-color="1"></path>
        <path fill="#ff7a00" d="M200 100c0 55.228-44.772 100-100 100S0 155.228 0 100 44.772 0 100 0s100 44.772 100 100" data-color="1"></path>
        <path d="M173.45 54.48c-4.81-3.64-11.65-2.69-15.29 2.12-3 3.96-2.87 9.3-.05 13.09v.01c-19.53 23.1-32.91 25.6-52.75 28.04l30.27-52.44c4.68 1.37 9.87-.56 12.42-4.97 2.99-5.18 1.21-11.81-3.97-14.8s-11.81-1.22-14.8 3.97c-2.55 4.41-1.63 9.86 1.89 13.23v.02l-28.6 49.53V34.65c4.74-1.12 8.26-5.25 8.26-10.19 0-5.8-4.85-10.5-10.83-10.5s-10.83 4.7-10.83 10.5c0 4.94 3.52 9.07 8.26 10.19v57.62L68.84 42.74c3.51-3.38 4.43-8.82 1.89-13.23-2.99-5.18-9.62-6.96-14.8-3.96-5.18 2.99-6.95 9.62-3.96 14.8 2.55 4.41 7.74 6.34 12.42 4.97s30.27 52.44 30.27 52.44c-19.84-2.44-33.22-4.94-52.75-28.04 2.82-3.79 2.94-9.13-.05-13.09-3.64-4.81-10.48-5.75-15.29-2.12-4.81 3.64-5.75 10.48-2.12 15.29 3.11 4.11 8.58 5.39 13.1 3.39 0 0 0 .01.01.02 20.35 24.08 34.93 27.4 54.53 29.85l-13.73 70.97c-.03.14-.03.27-.01.41-8.81 2.39-17.18 6.27-24.52 11.66 31.34-10.17 61.05-10.14 92.39 0-7.34-5.39-15.7-9.28-24.52-11.67.01-.13.01-.26-.02-.4l-13.73-70.97c19.6-2.45 34.18-5.77 54.53-29.85 0 0 0-.01.01-.02 4.52 2 9.99.72 13.1-3.39 3.64-4.81 2.69-11.65-2.12-15.29Z" fill="#ffffff" data-color="2"></path>
    </g>
</svg>
